<svg width="219" height="58" viewBox="0 0 219 58" fill="none" xmlns="http://www.w3.org/2000/svg">
<path d="M0.65625 34.25C0.21875 34.25 0 34.0208 0 33.5625V31.0625C0 30.625 0.21875 30.4062 0.65625 30.4062H3.90625V23.3125C3.90625 23 3.94792 22.6875 4.03125 22.375C4.13542 22.0625 4.39583 21.8229 4.8125 21.6562L22.0625 15.2812C22.8542 14.9896 23.5104 14.7708 24.0312 14.625C24.5521 14.4792 25.0104 14.4062 25.4062 14.4062C25.5521 14.4062 25.7083 14.4375 25.875 14.5C26.0625 14.5417 26.2292 14.625 26.375 14.75C26.5417 14.875 26.6771 15.0521 26.7812 15.2812C26.8854 15.4896 26.9375 15.75 26.9375 16.0625V30.4062H32.5625C33 30.4062 33.2188 30.625 33.2188 31.0625V33.5625C33.2188 34.0208 33 34.25 32.5625 34.25H26.9375V46.8438C26.9375 48.3229 27.1771 49.3646 27.6562 49.9688C28.1562 50.5729 28.9167 50.875 29.9375 50.875C30.1667 50.875 30.4062 50.8542 30.6562 50.8125C30.9062 50.75 31.1354 50.6979 31.3438 50.6562C31.5729 50.5938 31.7812 50.5417 31.9688 50.5C32.1562 50.4375 32.3125 50.4062 32.4375 50.4062C32.6667 50.4062 32.7812 50.5417 32.7812 50.8125V53.2188C32.7812 53.6354 32.6979 53.9167 32.5312 54.0625C32.3646 54.2083 32.2188 54.3021 32.0938 54.3438C31.3021 54.6771 30.3646 55.0104 29.2812 55.3438C28.2188 55.6771 27.0625 55.9688 25.8125 56.2188C24.5833 56.4896 23.2812 56.6979 21.9062 56.8438C20.5312 57.0104 19.1562 57.0938 17.7812 57.0938C15.8021 57.0938 13.9583 56.9896 12.25 56.7812C10.5625 56.5938 9.09375 56.1458 7.84375 55.4375C6.61458 54.7292 5.64583 53.6771 4.9375 52.2812C4.25 50.8854 3.90625 48.9896 3.90625 46.5938V34.25H0.65625ZM38 28.3438C38 27.6354 38.0625 27.0104 38.1875 26.4688C38.3125 25.9062 38.5521 25.4479 38.9062 25.0938C39.2604 24.7396 39.75 24.4688 40.375 24.2812C41 24.0938 41.8125 24 42.8125 24H56.5C57.4583 24 58.2292 24.0938 58.8125 24.2812C59.4167 24.4479 59.8854 24.7083 60.2188 25.0625C60.5521 25.4167 60.7708 25.8646 60.875 26.4062C60.9792 26.9479 61.0312 27.5938 61.0312 28.3438V51.7188C61.0312 52.4271 60.9792 53.0521 60.875 53.5938C60.7708 54.1146 60.5521 54.5625 60.2188 54.9375C59.8854 55.2917 59.4167 55.5625 58.8125 55.75C58.2292 55.9167 57.4583 56 56.5 56H42.8125C41.8125 56 41 55.9062 40.375 55.7188C39.75 55.5312 39.2604 55.2604 38.9062 54.9062C38.5521 54.5521 38.3125 54.1042 38.1875 53.5625C38.0625 53.0208 38 52.3854 38 51.6562V28.3438ZM39.1562 10.625C39.1562 9.1875 39.4271 7.83333 39.9688 6.5625C40.5312 5.29167 41.2812 4.1875 42.2188 3.25C43.1562 2.3125 44.2604 1.57292 45.5312 1.03125C46.8021 0.46875 48.1562 0.1875 49.5938 0.1875C51.0104 0.1875 52.3438 0.46875 53.5938 1.03125C54.8646 1.57292 55.9688 2.3125 56.9062 3.25C57.8438 4.1875 58.5833 5.29167 59.125 6.5625C59.6875 7.83333 59.9688 9.1875 59.9688 10.625C59.9688 12.0417 59.6875 13.3854 59.125 14.6562C58.5833 15.9062 57.8438 17 56.9062 17.9375C55.9688 18.875 54.8646 19.625 53.5938 20.1875C52.3438 20.7292 51.0104 21 49.5938 21C48.1562 21 46.8021 20.7292 45.5312 20.1875C44.2604 19.625 43.1562 18.875 42.2188 17.9375C41.2812 17 40.5312 15.9062 39.9688 14.6562C39.4271 13.3854 39.1562 12.0417 39.1562 10.625ZM76.2188 46.0938L71.9688 53.4375C71.7812 53.7708 71.5938 54.0938 71.4062 54.4062C71.2396 54.7188 71.0417 54.9896 70.8125 55.2188C70.6042 55.4479 70.3542 55.6354 70.0625 55.7812C69.7917 55.9271 69.4479 56 69.0312 56H65.4375C65.125 56 64.8646 55.9271 64.6562 55.7812C64.4688 55.6146 64.375 55.375 64.375 55.0625C64.375 54.875 64.4062 54.6667 64.4688 54.4375C64.5521 54.1875 64.6875 53.9167 64.875 53.625L72.9375 40.4375L64.9375 26.5625C64.6875 26.1667 64.5625 25.7917 64.5625 25.4375C64.5625 24.4792 65.1875 24 66.4375 24H84.4688C85.5104 24 86.2292 24.1146 86.625 24.3438C87.0417 24.5729 87.3646 24.8854 87.5938 25.2812L91.625 32.1562L94.875 26.5625C95.0625 26.2292 95.2396 25.9062 95.4062 25.5938C95.5938 25.2812 95.7917 25.0104 96 24.7812C96.2292 24.5521 96.4896 24.3646 96.7812 24.2188C97.0729 24.0729 97.4271 24 97.8438 24H101.406C101.74 24 102 24.0833 102.188 24.25C102.396 24.3958 102.5 24.625 102.5 24.9375C102.5 25.3542 102.333 25.8333 102 26.375L94.9688 37.8438L103.844 53.0312C104.01 53.3021 104.146 53.5729 104.25 53.8438C104.375 54.0938 104.438 54.3333 104.438 54.5625C104.438 54.9167 104.375 55.1979 104.25 55.4062C104.125 55.5938 103.958 55.7396 103.75 55.8438C103.542 55.9271 103.312 55.9792 103.062 56C102.833 56 102.594 56 102.344 56H84C83.4792 56 83.0312 55.9375 82.6562 55.8125C82.3021 55.6667 82 55.5 81.75 55.3125C81.5208 55.125 81.3333 54.9271 81.1875 54.7188C81.0625 54.5104 80.9583 54.3229 80.875 54.1562L76.2188 46.0938ZM125.562 57.0938C124 57.0938 122.438 56.9688 120.875 56.7188C119.312 56.4688 117.812 56.0729 116.375 55.5312C114.958 54.9896 113.635 54.2812 112.406 53.4062C111.177 52.5312 110.104 51.4583 109.188 50.1875C108.292 48.9167 107.583 47.4479 107.062 45.7812C106.542 44.0938 106.281 42.1667 106.281 40C106.281 37.875 106.542 35.9792 107.062 34.3125C107.583 32.625 108.292 31.1458 109.188 29.875C110.104 28.6042 111.177 27.5312 112.406 26.6562C113.635 25.7604 114.958 25.0417 116.375 24.5C117.812 23.9375 119.312 23.5312 120.875 23.2812C122.438 23.0312 124 22.9062 125.562 22.9062C127 22.9062 128.469 23 129.969 23.1875C131.49 23.3542 132.958 23.6771 134.375 24.1562C135.812 24.6146 137.156 25.25 138.406 26.0625C139.677 26.8542 140.781 27.875 141.719 29.125C142.677 30.375 143.427 31.875 143.969 33.625C144.531 35.3542 144.812 37.3958 144.812 39.75C144.812 42.1667 144.542 44.2812 144 46.0938C143.458 47.8854 142.708 49.4271 141.75 50.7188C140.812 51.9896 139.719 53.0417 138.469 53.875C137.219 54.7083 135.875 55.3646 134.438 55.8438C133.021 56.3021 131.552 56.625 130.031 56.8125C128.51 57 127.021 57.0938 125.562 57.0938ZM135.156 49.5938C135.802 49.5938 136.438 49.4583 137.062 49.1875C137.708 48.8958 138.271 48.3854 138.75 47.6562C139.25 46.9271 139.646 45.9271 139.938 44.6562C140.25 43.3646 140.406 41.7292 140.406 39.75C140.406 37.875 140.25 36.3333 139.938 35.125C139.646 33.9167 139.25 32.9688 138.75 32.2812C138.25 31.5729 137.688 31.0833 137.062 30.8125C136.438 30.5417 135.802 30.4062 135.156 30.4062C134.656 30.4062 134.094 30.5104 133.469 30.7188C132.865 30.9271 132.292 31.375 131.75 32.0625C131.229 32.7292 130.792 33.6979 130.438 34.9688C130.083 36.2188 129.906 37.8958 129.906 40C129.906 42.1042 130.052 43.7917 130.344 45.0625C130.635 46.3333 131.021 47.3021 131.5 47.9688C131.979 48.6354 132.531 49.0729 133.156 49.2812C133.802 49.4896 134.469 49.5938 135.156 49.5938ZM149.375 28.3438C149.375 27.6354 149.438 27.0104 149.562 26.4688C149.688 25.9062 149.927 25.4479 150.281 25.0938C150.635 24.7396 151.125 24.4688 151.75 24.2812C152.375 24.0938 153.188 24 154.188 24H167.875C168.833 24 169.604 24.0938 170.188 24.2812C170.771 24.4688 171.229 24.75 171.562 25.125C171.896 25.5 172.115 25.9688 172.219 26.5312C172.344 27.0938 172.406 27.75 172.406 28.5V30.8125L179.344 24.0625C179.802 23.625 180.229 23.4062 180.625 23.4062C180.854 23.4062 181.052 23.4583 181.219 23.5625C181.406 23.6458 181.562 23.75 181.688 23.875L183.094 25.3438C183.406 25.6562 183.562 26 183.562 26.375C183.562 26.6042 183.49 26.8438 183.344 27.0938C183.219 27.3229 183.01 27.5521 182.719 27.7812L172.406 35.7812V51.5938C172.406 52.3229 172.354 52.9688 172.25 53.5312C172.146 54.0729 171.917 54.5312 171.562 54.9062C171.208 55.2604 170.698 55.5312 170.031 55.7188C169.365 55.9062 168.458 56 167.312 56H154.188C153.188 56 152.375 55.9062 151.75 55.7188C151.125 55.5312 150.635 55.2604 150.281 54.9062C149.927 54.5521 149.688 54.1042 149.562 53.5625C149.438 53.0208 149.375 52.3854 149.375 51.6562V28.3438ZM197.188 56C196.062 56 194.927 55.9271 193.781 55.7812C192.656 55.6354 191.573 55.4062 190.531 55.0938C189.51 54.7604 188.552 54.3333 187.656 53.8125C186.76 53.2917 185.979 52.6458 185.312 51.875C184.667 51.1042 184.156 50.1979 183.781 49.1562C183.406 48.1146 183.219 46.9167 183.219 45.5625C183.219 43.75 183.562 42.1979 184.25 40.9062C184.938 39.6146 185.854 38.5417 187 37.6875C188.167 36.8333 189.5 36.1771 191 35.7188C192.5 35.2604 194.052 34.9688 195.656 34.8438V32.6875C195.656 31.875 195.552 31.2292 195.344 30.75C195.135 30.2708 194.865 29.9167 194.531 29.6875C194.219 29.4375 193.865 29.2812 193.469 29.2188C193.094 29.1354 192.729 29.0938 192.375 29.0938C191.958 29.0938 191.51 29.1562 191.031 29.2812C190.573 29.4062 190.125 29.5625 189.688 29.75C189.25 29.9167 188.833 30.1042 188.438 30.3125C188.042 30.5208 187.708 30.7083 187.438 30.875C187.312 30.9583 187.198 31.0312 187.094 31.0938C186.99 31.1562 186.885 31.1875 186.781 31.1875C186.594 31.1875 186.417 31.0521 186.25 30.7812L185.188 29.0938C185.083 28.9479 185.031 28.7917 185.031 28.625C185.031 28.4583 185.094 28.3125 185.219 28.1875C185.365 28.0625 185.5 27.9583 185.625 27.875C186.312 27.3958 187.188 26.9062 188.25 26.4062C189.312 25.9062 190.5 25.4583 191.812 25.0625C193.146 24.6667 194.583 24.3438 196.125 24.0938C197.667 23.8438 199.26 23.7188 200.906 23.7188C202.469 23.7188 203.99 23.7708 205.469 23.875C206.969 23.9792 208.375 24.2083 209.688 24.5625C211.021 24.8958 212.229 25.3854 213.312 26.0312C214.417 26.6562 215.365 27.4896 216.156 28.5312C216.969 29.5729 217.594 30.8542 218.031 32.375C218.469 33.8958 218.688 35.7188 218.688 37.8438V51.7812C218.688 52.4688 218.625 53.0833 218.5 53.625C218.375 54.1458 218.135 54.5833 217.781 54.9375C217.427 55.2917 216.938 55.5625 216.312 55.75C215.688 55.9167 214.875 56 213.875 56H197.188ZM195.656 38.8125C194.156 38.8125 192.896 39 191.875 39.375C190.854 39.75 190.031 40.25 189.406 40.875C188.781 41.5 188.333 42.2292 188.062 43.0625C187.792 43.875 187.656 44.7188 187.656 45.5938C187.656 46.4688 187.792 47.3021 188.062 48.0938C188.333 48.8646 188.781 49.5417 189.406 50.125C190.031 50.7083 190.854 51.1667 191.875 51.5C192.896 51.8333 194.156 52 195.656 52V38.8125Z" fill="#8E51FF"/>
</svg>
