<?xml version="1.0" encoding="UTF-8"?>
<!DOCTYPE svg PUBLIC "-//W3C//DTD SVG 1.1//EN" "http://www.w3.org/Graphics/SVG/1.1/DTD/svg11.dtd">
<!-- Creator: CorelDRAW 2021 (64-Bit Evaluation Version) -->
<svg xmlns="http://www.w3.org/2000/svg" xml:space="preserve" width="5.90551in" height="5.90551in" version="1.1" style="shape-rendering:geometricPrecision; text-rendering:geometricPrecision; image-rendering:optimizeQuality; fill-rule:evenodd; clip-rule:evenodd"
viewBox="0 0 5905.51 5905.51"
 xmlns:xlink="http://www.w3.org/1999/xlink"
 xmlns:xodm="http://www.corel.com/coreldraw/odm/2003">
 <defs>
  <style type="text/css">
   <![CDATA[
    .fil1 {fill:#DD403B;fill-rule:nonzero}
    .fil0 {fill:#2077BC;fill-rule:nonzero}
   ]]>
  </style>
 </defs>
 <g id="Layer_x0020_1">
  <metadata id="CorelCorpID_0Corel-Layer"/>
  <path class="fil0" d="M691.53 3508.88l0 -67.22 -51.89 -96.91 42.38 0 16.81 39.44c5.12,11.94 8.53,20.71 12.65,31.43l0.5 0c3.65,-10.24 7.56,-19.75 12.42,-31.43l16.57 -39.44 41.64 0 -54.06 95.71 0 68.42 -37.02 0z"/>
  <path class="fil0" d="M838.88 3427.3c0,32.14 15.09,54.8 39.94,54.8 25.07,0 39.46,-23.87 39.46,-55.77 0,-29.46 -14.13,-54.8 -39.7,-54.8 -25.07,0 -39.7,23.87 -39.7,55.77zm118.6 -2.17c0,53.8 -32.63,86.43 -80.61,86.43 -48.7,0 -77.2,-36.76 -77.2,-83.52 0,-49.2 31.4,-85.96 79.87,-85.96 50.42,0 77.93,37.74 77.93,83.06z"/>
  <path class="fil0" d="M1037.13 3344.74l0 94.5c0,28.25 10.71,42.61 29.73,42.61 19.48,0 30.2,-13.65 30.2,-42.61l0 -94.5 36.99 0 0 92.06c0,50.65 -25.57,74.75 -68.42,74.75 -41.41,0 -65.75,-22.89 -65.75,-75.25l0 -91.56 37.26 0z"/>
  <path class="fil0" d="M1221.26 3417.55l14.63 0c18.51,0 29.46,-9.26 29.46,-23.63 0,-15.09 -10.24,-22.63 -27.28,-22.87 -9.01,0 -14.13,0.71 -16.81,1.21l0 45.29zm-36.76 -70.63c11.93,-1.94 29.7,-3.41 49.41,-3.41 24.37,0 41.41,3.68 53.1,12.92 9.73,7.79 15.09,19.24 15.09,34.34 0,20.93 -14.87,35.32 -28.96,40.41l0 0.74c11.43,4.65 17.77,15.6 21.9,30.69 5.12,18.51 10.24,39.94 13.39,46.26l-37.97 0c-2.68,-4.62 -6.59,-18.01 -11.44,-38.23 -4.39,-20.45 -11.45,-26.04 -26.55,-26.3l-11.21 0 0 64.54 -36.76 0 0 -161.95z"/>
  <polygon class="fil0" points="1504.28,3375.92 1460.2,3375.92 1460.2,3344.74 1586.36,3344.74 1586.36,3375.92 1541.54,3375.92 1541.54,3508.87 1504.28,3508.87 "/>
  <path class="fil0" d="M1661.12 3417.55l14.63 0c18.51,0 29.46,-9.26 29.46,-23.63 0,-15.09 -10.24,-22.63 -27.28,-22.87 -9.01,0 -14.13,0.71 -16.81,1.21l0 45.29zm-36.78 -70.63c11.95,-1.94 29.72,-3.41 49.44,-3.41 24.37,0 41.41,3.68 53.1,12.92 9.74,7.79 15.09,19.24 15.09,34.34 0,20.93 -14.87,35.32 -28.96,40.41l0 0.74c11.43,4.65 17.77,15.6 21.9,30.69 5.12,18.51 10.24,39.94 13.39,46.26l-37.97 0c-2.68,-4.62 -6.59,-18.01 -11.44,-38.23 -4.39,-20.45 -11.45,-26.04 -26.55,-26.3l-11.21 0 0 64.54 -36.78 0 0 -161.95z"/>
  <path class="fil0" d="M1822.85 3344.74l0 94.5c0,28.25 10.71,42.61 29.72,42.61 19.48,0 30.19,-13.65 30.19,-42.61l0 -94.5 37 0 0 92.06c0,50.65 -25.55,74.75 -68.43,74.75 -41.41,0 -65.75,-22.89 -65.75,-75.25l0 -91.56 37.26 0z"/>
  <path class="fil0" d="M1971.43 3470.64c9.98,5.12 25.33,10.24 41.14,10.24 17.07,0 26.07,-7.06 26.07,-17.8 0,-10.21 -7.8,-16.07 -27.52,-23.12 -27.28,-9.48 -45.06,-24.58 -45.06,-48.45 0,-28.01 23.37,-49.44 62.11,-49.44 18.51,0 32.14,3.89 41.87,8.27l-8.27 29.96c-6.56,-3.17 -18.27,-7.79 -34.34,-7.79 -16.07,0 -23.87,7.3 -23.87,15.83 0,10.47 9.26,15.09 30.46,23.13 28.96,10.71 42.61,25.81 42.61,48.94 0,27.54 -21.19,50.91 -66.25,50.91 -18.75,0 -37.26,-4.89 -46.52,-9.98l7.56 -30.69z"/>
  <polygon class="fil0" points="2151.65,3375.92 2107.57,3375.92 2107.57,3344.74 2233.73,3344.74 2233.73,3375.92 2188.91,3375.92 2188.91,3508.87 2151.65,3508.87 "/>
  <polygon class="fil0" points="2369.38,3439.48 2308.99,3439.48 2308.99,3478.44 2376.44,3478.44 2376.44,3508.87 2271.73,3508.87 2271.73,3344.74 2373.02,3344.74 2373.02,3375.2 2308.99,3375.2 2308.99,3409.28 2369.38,3409.28 "/>
  <path class="fil0" d="M2457.31 3480.87c3.18,0.73 8.27,0.73 12.92,0.73 33.61,0.24 55.5,-18.27 55.5,-57.48 0.24,-34.11 -19.72,-52.12 -51.62,-52.12 -8.28,0 -13.63,0.74 -16.81,1.48l0 107.39zm-37.26 -133.94c13.63,-2.2 31.4,-3.41 50.18,-3.41 31.17,0 51.38,5.59 67.19,17.54 17.07,12.66 27.78,32.88 27.78,61.87 0,31.4 -11.46,53.09 -27.29,66.48 -17.3,14.37 -43.58,21.19 -75.72,21.19 -19.25,0 -32.9,-1.24 -42.14,-2.44l0 -161.22z"/>
  <path class="fil0" d="M2779.54 3421.46c3.18,0.73 7.06,0.96 12.41,0.96 19.72,0 31.91,-9.97 31.91,-26.78 0,-15.1 -10.48,-24.11 -28.99,-24.11 -7.54,0 -12.65,0.71 -15.33,1.44l0 48.48zm-36.79 -74.52c11.46,-1.94 27.52,-3.42 50.18,-3.42 22.89,0 39.2,4.39 50.18,13.16 10.45,8.27 17.51,21.92 17.51,37.99 0,16.07 -5.36,29.7 -15.1,38.96 -12.65,11.92 -31.4,17.28 -53.33,17.28 -4.85,0 -9.24,-0.24 -12.65,-0.74l0 58.71 -36.79 0 0 -161.95z"/>
  <path class="fil0" d="M2934.2 3427.3c0,32.14 15.1,54.8 39.94,54.8 25.07,0 39.46,-23.87 39.46,-55.77 0,-29.46 -14.13,-54.8 -39.7,-54.8 -25.07,0 -39.7,23.87 -39.7,55.77zm118.6 -2.17c0,53.8 -32.64,86.43 -80.61,86.43 -48.71,0 -77.2,-36.76 -77.2,-83.52 0,-49.2 31.4,-85.96 79.88,-85.96 50.41,0 77.93,37.74 77.93,83.06z"/>
  <path class="fil0" d="M3120.28 3508.88l-38.96 -164.13 39.7 0 12.42 67.69c3.65,19.48 7.06,40.67 9.74,57.24l0.5 0c2.68,-17.77 6.57,-37.52 10.72,-57.73l13.86 -67.2 39.47 0 13.15 69.16c3.65,19.22 6.33,36.76 8.77,55.04l0.48 0c2.44,-18.28 6.09,-37.5 9.5,-57l13.39 -67.2 37.73 0 -42.35 164.13 -40.2 0 -13.87 -70.62c-3.17,-16.55 -5.85,-31.91 -7.79,-50.65l-0.5 0c-2.92,18.51 -5.59,34.1 -9.48,50.65l-15.59 70.62 -40.67 0z"/>
  <polygon class="fil0" points="3425.93,3439.48 3365.54,3439.48 3365.54,3478.44 3432.99,3478.44 3432.99,3508.87 3328.28,3508.87 3328.28,3344.74 3429.58,3344.74 3429.58,3375.2 3365.54,3375.2 3365.54,3409.28 3425.93,3409.28 "/>
  <path class="fil0" d="M3513.38 3417.55l14.62 0c18.48,0 29.46,-9.26 29.46,-23.63 0,-15.09 -10.24,-22.63 -27.28,-22.87 -9,0 -14.13,0.71 -16.8,1.21l0 45.29zm-36.78 -70.63c11.94,-1.94 29.72,-3.41 49.44,-3.41 24.37,0 41.41,3.68 53.09,12.92 9.74,7.79 15.1,19.24 15.1,34.34 0,20.93 -14.86,35.32 -28.99,40.41l0 0.74c11.44,4.65 17.8,15.6 21.93,30.69 5.12,18.51 10.24,39.94 13.39,46.26l-38 0c-2.67,-4.62 -6.56,-18.01 -11.42,-38.23 -4.38,-20.45 -11.44,-26.04 -26.55,-26.3l-11.21 0 0 64.54 -36.78 0 0 -161.95z"/>
  <path class="fil0" d="M3811 3421.46c3.18,0.73 7.06,0.96 12.42,0.96 19.72,0 31.9,-9.97 31.9,-26.78 0,-15.1 -10.48,-24.11 -28.99,-24.11 -7.53,0 -12.65,0.71 -15.33,1.44l0 48.48zm-36.76 -74.52c11.43,-1.94 27.52,-3.42 50.15,-3.42 22.9,0 39.2,4.39 50.18,13.16 10.45,8.27 17.54,21.92 17.54,37.99 0,16.07 -5.38,29.7 -15.12,38.96 -12.65,11.92 -31.4,17.28 -53.33,17.28 -4.85,0 -9.24,-0.24 -12.65,-0.74l0 58.71 -36.76 0 0 -161.95z"/>
  <path class="fil0" d="M3999.27 3438.99l-10.24 -34.81c-2.92,-9.74 -5.83,-21.93 -8.27,-31.67l-0.5 0c-2.42,9.74 -4.86,22.17 -7.54,31.67l-9.74 34.81 36.29 0zm-41.64 27.75l-11.69 42.14 -38.5 0 50.18 -164.13 48.7 0 50.89 164.13 -39.94 0 -12.65 -42.14 -47 0z"/>
  <path class="fil0" d="M4134.21 3417.55l14.63 0c18.49,0 29.46,-9.26 29.46,-23.63 0,-15.09 -10.24,-22.63 -27.28,-22.87 -9.01,0 -14.13,0.71 -16.81,1.21l0 45.29zm-36.78 -70.63c11.94,-1.94 29.72,-3.41 49.44,-3.41 24.36,0 41.4,3.68 53.09,12.92 9.74,7.79 15.09,19.24 15.09,34.34 0,20.93 -14.86,35.32 -28.98,40.41l0 0.74c11.44,4.65 17.8,15.6 21.92,30.69 5.12,18.51 10.24,39.94 13.39,46.26l-37.99 0c-2.68,-4.62 -6.56,-18.01 -11.43,-38.23 -4.38,-20.45 -11.44,-26.04 -26.54,-26.3l-11.22 0 0 64.54 -36.78 0 0 -161.95z"/>
  <polygon class="fil0" points="4291.79,3375.92 4247.7,3375.92 4247.7,3344.74 4373.87,3344.74 4373.87,3375.92 4329.05,3375.92 4329.05,3508.87 4291.79,3508.87 "/>
  <path class="fil0" d="M4411.87 3508.88l0 -164.13 43.35 0 34.08 60.15c9.74,17.28 19.49,37.74 26.81,56.25l0.71 0c-2.42,-21.67 -3.15,-43.83 -3.15,-68.43l0 -47.97 34.08 0 0 164.13 -38.96 0 -35.06 -63.3c-9.73,-17.54 -20.45,-38.73 -28.48,-57.97l-0.74 0.23c0.98,21.69 1.44,44.82 1.44,71.61l0 49.43 -34.08 0z"/>
  <polygon class="fil0" points="4695.84,3439.48 4635.45,3439.48 4635.45,3478.44 4702.9,3478.44 4702.9,3508.87 4598.19,3508.87 4598.19,3344.74 4699.49,3344.74 4699.49,3375.2 4635.45,3375.2 4635.45,3409.28 4695.84,3409.28 "/>
  <path class="fil0" d="M4783.28 3417.55l14.63 0c18.48,0 29.46,-9.26 29.46,-23.63 0,-15.09 -10.24,-22.63 -27.28,-22.87 -9,0 -14.13,0.71 -16.8,1.21l0 45.29zm-36.79 -70.63c11.95,-1.94 29.73,-3.41 49.44,-3.41 24.37,0 41.41,3.68 53.09,12.92 9.74,7.79 15.1,19.24 15.1,34.34 0,20.93 -14.86,35.32 -28.99,40.41l0 0.74c11.44,4.65 17.8,15.6 21.93,30.69 5.12,18.51 10.24,39.94 13.39,46.26l-38 0c-2.67,-4.62 -6.56,-18.01 -11.42,-38.23 -4.38,-20.45 -11.44,-26.04 -26.55,-26.3l-11.21 0 0 64.54 -36.79 0 0 -161.95z"/>
  <path class="fil1" d="M441.66 3154.1l0 -708.28 200.1 0 0 241.06 209.42 0 0 -241.06 200.13 0 0 761.34 -200.13 0 0 -349.03 -209.42 0 0 242c0,49.63 4.35,85.31 13.05,107.02l-182.43 114.48c-20.48,-40.32 -30.72,-96.18 -30.72,-167.54zm928.49 53.06l-177.76 0 0 -522.9 177.76 0 0 522.9zm285.7 0l0 -566.8 200.1 0 0 201.02c48.39,-26.05 88.12,-53.2 119.15,-81.45 31.01,-28.23 46.53,-56.61 46.53,-85.15 0,-20.45 -7.27,-35.06 -21.87,-43.74 -14.57,-8.69 -40.18,-13.03 -76.8,-13.03l-303.4 0 45.59 -172.19 310.87 0c51.52,0 95.86,7.93 133.12,23.74 37.21,15.83 65.91,39.41 86.07,70.74 20.17,31.35 30.28,69.95 30.28,115.87 0,83.15 -36.16,157.15 -108.44,221.98 -72.29,64.85 -159.32,118.07 -261.1,159.61l0 169.41 -200.1 0zm2369.46 -761.34l-192.64 761.34 -216.88 0 -91.22 -443.94 -2.78 0 -89.35 443.94 -217.8 0 -193.62 -761.34 218.75 0 89.35 481.18 1.87 0 92.14 -481.18 201.97 0 99.61 479.31 3.73 0 78.17 -479.31 218.72 0zm506.34 0l45.61 172.19 -307.13 0 0 112.62 280.13 0 -47.44 171.25 -232.69 0 0 134.04 327.61 0 -45.61 171.25 -480.27 0 0 -761.34 459.78 0zm138.69 194.54l200.13 0 0 566.8 -200.13 0 0 -566.8zm-36.29 -22.35l45.61 -172.19 369.52 0c75.07,0 132.33,18.3 171.72,54.9 39.39,36.63 59.1,83.76 59.1,141.5 0,89.96 -54.61,170.3 -163.81,241.06 34.74,65.75 65.93,118.63 92.61,157.75 26.7,39.1 196.19,258.31 253.91,329.65l-167.55 114.48c-63.28,-71.34 -246.76,-313.82 -296.7,-400.39 -49.94,-86.57 -90.14,-165.2 -120.55,-235.94 0.63,-0.63 19.41,-14.13 56.32,-40.49 36.92,-26.36 65.93,-51.2 87.01,-74.47 21.11,-23.26 31.33,-46.08 30.72,-68.4 0,-21.71 -7.43,-35.05 -22.35,-40.01 -14.89,-4.96 -38.78,-7.46 -71.65,-7.46l-323.91 0z"/>
  <path class="fil0" d="M1339.94 2502.61c-9.06,32.41 -42.67,51.33 -75.07,42.28 -32.4,-9.03 -51.33,-42.64 -42.28,-75.04 9.06,-32.41 42.64,-51.33 75.07,-42.3 32.4,9.06 51.33,42.66 42.28,75.06zm-58.14 -107.49c-49.1,-0.29 -89.11,39.28 -89.43,88.35 -0.44,77.01 88.01,147.06 88.01,147.06 0,0 89.3,-68.98 89.75,-145.99 0.31,-49.1 -39.26,-89.11 -88.33,-89.43z"/>
  <path class="fil1" d="M2631.72 2922.7c-31.71,0 -57.56,-25.74 -57.56,-57.4l0 -362.08c0,-31.64 25.84,-57.4 57.56,-57.4 31.74,0 57.56,25.76 57.56,57.4l0 362.08c0,31.66 -25.81,57.4 -57.56,57.4z"/>
  <path class="fil1" d="M2631.72 3220.82c-196.58,0 -356.51,-159.48 -356.51,-355.52 0,-125.61 64.48,-239.41 172.48,-304.44 13.15,-7.93 28.62,-10.27 43.56,-6.59 14.91,3.68 27.52,12.94 35.44,26.05 7.96,13.13 10.3,28.54 6.62,43.43 -3.7,14.89 -12.97,27.43 -26.12,35.37 -73.18,44.05 -116.87,121.15 -116.87,206.19 0,132.76 108.28,240.75 241.4,240.75 133.12,0 241.41,-108 241.41,-240.75 0,-85.04 -43.7,-162.14 -116.87,-206.19 -27.15,-16.36 -35.92,-51.7 -19.51,-78.8 16.39,-27.07 51.83,-35.81 79,-19.46 108,65.04 172.48,178.86 172.48,304.44 0,196.04 -159.93,355.52 -356.52,355.52z"/>
 </g>
</svg>
